<svg xmlns="http://www.w3.org/2000/svg" viewBox="0 0 64 64" width="64" height="64">
  <defs>
    <linearGradient id="g" x1="0" y1="0" x2="64" y2="64" gradientUnits="userSpaceOnUse">
      <stop offset="0" stop-color="#0a0e1a"/>
      <stop offset="1" stop-color="#111a30"/>
    </linearGradient>
    <linearGradient id="gold" x1="16" y1="14" x2="48" y2="50" gradientUnits="userSpaceOnUse">
      <stop offset="0" stop-color="#f0c674"/>
      <stop offset="1" stop-color="#c9922a"/>
    </linearGradient>
  </defs>
  <rect width="64" height="64" rx="14" fill="url(#g)"/>
  <rect x="1.5" y="1.5" width="61" height="61" rx="12.5" fill="none" stroke="#c9922a" stroke-opacity="0.35" stroke-width="1.5"/>
  <!-- circuit accents -->
  <path d="M10 22 H4 M54 42 H60 M22 54 V60 M42 4 V10" stroke="#3a4a6b" stroke-width="1.5" stroke-linecap="round"/>
  <circle cx="4" cy="22" r="1.6" fill="#c9922a"/>
  <circle cx="60" cy="42" r="1.6" fill="#c9922a"/>
  <!-- S monogram -->
  <path d="M44 22c-2.5-4.2-7-6-12-6-6.2 0-11 3.4-11 9 0 5.2 4.4 7.2 11 8.4 6 1.1 8 2.4 8 5 0 2.8-3 4.6-7 4.6-4.6 0-8-2-10-5.4"
        fill="none" stroke="url(#gold)" stroke-width="5" stroke-linecap="round" stroke-linejoin="round"/>
</svg>
